<svg xmlns="http://www.w3.org/2000/svg" viewBox="0 0 231 425" width="231" height="425" shape-rendering="geometricPrecision"><path fill="#41A060" fill-rule="evenodd" d="M197,355 192,355 179,361 171,360 165,357 156,358 156,360 163,366 178,368 192,363ZM115,230 100,236 100,238 112,234ZM157,25 153,26 145,34 143,32 144,24 137,26 128,39 120,59 116,62 110,83 106,87 97,87 96,91 92,95 88,96 83,94 77,101 71,100 67,95 61,96 55,91 55,89 53,89 49,92 42,107 83,107 117,111 121,116 121,119 115,123 81,119 37,119 35,130 39,127 55,126 56,128 67,127 71,134 72,142 68,150 63,154 60,152 37,152 33,142 31,142 25,165 37,162 58,161 70,163 77,162 78,164 93,166 113,174 125,188 128,197 128,208 126,215 117,229 124,225 126,226 112,239 93,246 75,246 61,242 67,241 67,239 61,239 60,242 56,238 39,235 26,257 16,289 14,300 14,317 25,321 28,335 36,344 41,405 55,405 67,410 70,409 74,384 56,364 58,362 72,368 101,369 105,374 113,409 128,405 136,405 146,408 149,361 155,351 155,344 150,342 144,335 146,323 149,319 156,321 168,321 177,319 179,316 179,286 175,267 163,237 158,230 158,224 154,219 150,200 150,132 144,103 137,89 157,51 161,39 161,32 157,31ZM73,257 88,260 96,265 110,281 116,298 116,313 114,321 108,332 95,344 82,348 67,346 55,339 45,328 41,320 37,304 38,290 41,281 48,270 57,262ZM91,122 103,124 102,126 90,126 93,130 107,129 115,134 118,144 116,150 113,151 110,157 100,155 81,156 75,147 76,139 81,130ZM140,43 141,46 133,66 125,80 124,77 129,62ZM37,25 37,32 33,33 36,50 46,71 51,77 53,77 57,71 61,70 60,63 56,61 50,43 51,42 54,46 60,60 71,56 64,38 55,25 50,25 50,31 48,33 40,25Z"/><path fill="#F9D9A6" fill-rule="evenodd" d="M68,257 53,263 42,276 37,292 38,315 44,329 55,341 71,348 87,348 101,342 110,332 114,324 117,311 116,294 111,280 100,266 85,258ZM41,208 41,210 49,211 71,210 71,208ZM6,183 4,200 11,218 22,228 35,233 38,236 59,240 88,240 99,238 112,233 120,227 128,212 129,198 123,182 113,173 93,165 67,161 32,162 25,164 13,172ZM23,187 27,183 31,188 31,196 28,197 28,199 30,199 31,196 56,197 75,193 91,187 100,187 104,189 110,197 106,202 90,206 76,207 76,210 109,205 110,209 100,220 99,216 97,216 96,222 84,225 57,225 36,221 25,215 25,210 39,210 39,208 26,207 22,204 22,198 26,198Z"/><path fill="#0E110C" fill-rule="evenodd" d="M112,412 113,419 141,420 148,418 147,408 140,405 123,405 114,408ZM34,410 34,418 58,420 69,418 70,416 69,409 53,404 41,404ZM206,318 197,329 196,341 200,350 214,350 226,342 226,338 222,336 226,329 226,323 221,321 211,327 210,319ZM148,318 145,328 145,335 154,344 166,343 174,336 179,318 170,320 156,320ZM13,316 14,330 17,337 25,343 31,343 32,339 28,332 25,319ZM24,183 24,197 30,198 32,196 30,183ZM103,142 99,146 99,153 101,156 109,158 115,152 114,145 110,142ZM56,140 54,144 56,152 67,153 70,150 70,144 66,139ZM33,111 33,117 36,120 85,120 119,123 122,119 122,115 118,110 101,108 41,106ZM141,80 137,85 136,90 144,107 149,131 151,154 150,205 153,220 157,226 160,226 160,219 164,214 162,205 167,201 169,196 166,184 171,178 171,170 167,162 171,158 172,148 170,143 166,140 169,135 168,124 162,119 164,116 164,106 159,100 154,99 154,85 150,82ZM117,61 111,61 106,53 99,53 94,56 89,49 80,50 75,59 72,56 64,56 60,60 60,69 56,70 52,75 52,79 55,82 54,91 56,95 66,96 73,102 80,101 84,96 93,96 97,92 98,88 105,89 109,87 114,75Z"/><path fill="#FAFAF8" fill-rule="evenodd" d="M111,195 106,188 96,185 54,196 31,195 28,198 22,194 20,204 24,208 24,217 28,220 55,226 86,226 101,222 109,215 111,211 111,204 108,203 111,200ZM76,136 75,146 81,157 89,155 101,156 99,149 106,142 110,143 114,148 110,158 116,154 118,149 118,138 114,130 82,128ZM33,133 32,146 37,153 57,153 55,144 60,139 65,140 69,147 72,146 72,134 69,128 38,126Z"/><path fill="#288947" fill-rule="evenodd" d="M124,405 115,407 113,410 124,407ZM126,404 126,406 138,406 147,409 147,407 138,404ZM52,404 52,406 68,410 66,407ZM51,358 61,374 67,381 75,386 79,367 74,367ZM203,349 199,348 194,354 194,359 197,359ZM154,347 150,359 163,365 160,360 164,358 164,356 156,347ZM179,317 167,319 167,321 179,319ZM139,269 147,316 143,328 143,337 148,343 155,345 155,342 146,333 148,323 152,320 152,318 149,317 149,300 146,283 142,271ZM29,262 22,288 22,317 20,318 14,316 14,318 24,321 27,334 30,340 32,340 27,327 24,311 26,283 31,262ZM152,216 153,221 157,227 159,227 154,216ZM138,204 136,204 132,214 123,224 106,235 85,240 54,239 54,241 73,247 95,247 106,244 117,238 126,230 136,213ZM150,152 150,181 152,181 152,152ZM69,150 66,152 57,151 57,153 66,154ZM38,124 38,126 69,128 69,126 52,125 53,120 44,120 42,124ZM80,119 80,121 88,122 81,127 78,132 83,129 97,129 98,127 100,130 113,130 116,132 114,128 104,127 107,123 110,123 110,121 100,122 99,120 92,120 88,122 87,119ZM122,118 120,118 117,122 113,122 113,124 120,123ZM69,106 69,108 85,108 85,106ZM101,87 97,86 96,90 91,95 84,94 79,100 76,100 76,102 79,102 85,96 94,96 98,90 101,89ZM55,84 52,91 57,96 66,97 69,101 74,102 68,94 58,94 56,91 57,84ZM140,81 135,87 135,90 143,105 145,116 147,116 143,99 138,90 138,86 142,83 142,81ZM117,63 115,63 110,81 104,89 111,85ZM34,7 31,16 33,34 38,34 39,28 47,36 51,53 58,68 53,72 51,78 53,78 58,71 62,71 61,62 64,57 60,56 50,36 51,27 55,26 55,24 40,7ZM164,5 159,5 154,8 142,19 139,26 136,27 136,29 138,29 139,26 143,27 143,35 128,60 123,75 122,84 128,80 146,36 155,27 156,34 162,36 165,24Z"/></svg>