<svg xmlns="http://www.w3.org/2000/svg" viewBox="0 0 344 431" width="344" height="431" shape-rendering="geometricPrecision"><path fill="#499455" fill-rule="evenodd" d="M42,380 44,386 49,385 49,382 46,383ZM21,360 21,362 26,363 33,371 31,373 31,377 33,377 34,374 37,374 36,369 29,362ZM81,350 78,350 79,354 76,360 80,357ZM24,350 24,352 28,354 39,354 39,351 29,352ZM75,349 61,353 55,360 54,369 62,370 68,369 72,366 72,364 70,364 66,367 57,367 63,361 60,357 64,353 75,351ZM19,327 19,329 30,334 36,345 38,345 36,338 29,330ZM10,326 13,341 20,349 22,349 22,347 15,341 12,331 14,326ZM199,280 200,293 204,296 208,296 208,294 203,293 201,290 204,280ZM156,272 156,286 160,290 164,290 166,286 169,287 168,299 170,303 173,304 171,296 171,278 167,273 165,273 164,276 162,271ZM160,276 165,282 162,288 157,281 157,278ZM118,251 114,251 106,255 103,262 99,265 94,277 94,295 101,310 102,316 95,317 87,314 81,308 77,309 77,311 82,311 88,318 103,319 105,317 109,317 109,315 104,313 96,294 96,278 100,268 105,263 106,264 101,274 101,283 103,285 106,284 106,282 103,281 104,272 109,265 119,261 118,256 113,256 110,263 105,263 110,255 118,253ZM167,213 158,213 152,224 144,233 132,236 132,238 138,243 141,250 141,253 138,254 137,257 143,259 148,268 145,269 141,262 136,261 139,266 138,271 146,272 142,277 137,280 132,279 128,285 115,290 106,291 105,288 103,288 103,292 112,293 127,288 144,278 149,269 162,266 164,227ZM268,186 256,190 247,199 238,220 238,247 219,265 215,265 215,267 222,267 230,275 234,284 234,293 229,294 227,297 223,298 223,300 232,299 234,293 239,293 252,287 255,289 254,371 239,374 234,372 213,373 211,375 177,371 172,367 164,366 162,364 163,341 161,339 156,339 139,346 123,347 119,346 115,342 118,340 118,333 116,333 116,337 114,338 110,335 110,333 89,321 79,324 78,320 75,319 75,314 73,314 73,319 76,320 76,324 78,326 89,324 105,334 110,335 114,345 122,349 140,348 159,341 161,343 160,365 163,368 171,369 175,373 177,389 211,390 212,378 215,375 232,374 234,376 236,389 238,392 272,391 279,334 283,332 291,336 304,336 310,333 311,329 302,332 296,331 290,328 284,320 290,296 290,267 287,261 285,229 282,213 277,200ZM288,268 288,277 281,283 263,292 256,288 262,285 267,287 270,284 268,281 285,268ZM128,8 127,28 134,52 145,71 148,74 156,72 154,67 156,63 163,60 162,51 152,30 144,19 135,10ZM236,3 227,8 211,28 202,48 201,55 196,62 194,80 189,83 186,82 185,87 181,91 174,90 169,97 165,97 162,92 155,94 148,89 141,102 140,112 200,107 204,112 200,118 139,122 138,131 142,129 164,128 169,140 167,146 162,151 155,154 143,151 139,144 137,144 136,164 156,158 184,158 197,163 208,176 209,188 204,199 194,207 175,212 176,230 209,231 222,229 227,211 238,192 246,184 257,178 261,178 263,184 265,184 264,177 260,175 255,163 239,112 230,94 216,77 223,68 222,65 231,49 238,20 238,6ZM174,129 183,124 198,124 204,132 204,140 198,148 188,152 183,151 182,149 177,148 172,141 172,133Z"/><path fill="#7F8C6A" fill-rule="evenodd" d="M41,377 44,384 49,383 48,376ZM6,363 6,366 14,373 20,375 21,378 31,378 32,375 36,373 33,366 28,362 13,360ZM81,351 70,350 63,352 57,358 55,368 63,369 70,367 77,361ZM10,327 12,337 16,345 27,353 38,353 38,344 32,333 20,327ZM210,186 208,186 205,198 198,205 185,209 185,211 201,205 209,194ZM139,178 137,184 139,184 142,180 145,185 144,191 146,191 147,185 145,179ZM263,177 258,176 252,178 237,190 226,209 220,228 207,230 178,229 176,227 176,214 178,211 164,212 165,218 162,236 161,264 151,268 148,265 147,260 138,255 134,261 139,263 142,266 142,270 145,270 146,273 131,284 110,292 106,292 104,290 102,276 106,267 118,261 117,251 108,254 106,259 99,266 95,276 95,296 103,316 101,318 95,318 87,315 84,310 78,309 76,313 73,313 73,320 77,320 77,325 89,323 108,334 114,340 114,344 121,348 141,347 159,340 162,343 161,366 170,368 175,372 201,376 213,376 215,374 225,373 241,375 256,372 255,296 270,291 287,281 290,273 289,266 286,265 261,284 256,286 252,285 237,292 232,291 223,299 212,299 208,295 204,294 200,289 203,281 199,278 206,270 212,267 221,266 239,249 238,228 241,215 248,201 258,191 267,188ZM156,275 160,273 161,276 171,284 164,285 162,289 157,284ZM172,174 172,176 175,178 175,184 173,187 168,186 169,189 174,189 176,187 177,176ZM203,168 206,172 208,181 210,181 208,172 205,168ZM188,158 188,160 200,165 199,162ZM152,158 141,160 135,163 135,165 152,160ZM164,150 153,153 153,155 160,154 164,152ZM143,141 143,143 149,145 150,150 148,155 150,155 152,146 149,142ZM205,139 203,139 198,149 203,146ZM179,124 173,127 171,133 173,133ZM181,123 181,125 200,125 203,132 205,132 200,123Z"/><path fill="#171910" fill-rule="evenodd" d="M228,411 229,415 256,417 271,415 273,413 273,390 236,390 237,399 230,405ZM165,407 165,412 174,414 199,414 210,412 211,389 187,389 176,387 177,395 170,400ZM45,386 43,379 16,382 16,384ZM81,380 72,378 71,381 48,380 47,386 75,384 76,381 81,382ZM322,301 314,309 312,319 314,327 326,329 337,323 337,320 334,318 339,312 339,306 332,306 326,309 325,301ZM147,270 131,271 110,279 103,284 104,293 117,291 132,285 142,279 147,274ZM224,266 219,265 208,267 198,276 198,281 202,282 200,285 201,294 206,295 211,300 224,300 235,292 234,279 231,273ZM135,237 119,237 107,246 106,256 115,253 117,258 111,263 111,266 115,268 129,268 138,264 136,260 139,256 142,256 142,248 139,241ZM140,178 138,180 139,189 141,191 145,191 145,180ZM171,175 168,179 168,187 175,188 176,176ZM141,142 139,144 140,151 145,154 149,154 151,152 151,145 148,142ZM176,138 173,140 172,145 175,149 181,151 184,149 185,143 182,139ZM205,110 202,106 144,110 136,113 134,115 134,120 140,124 202,119 205,116ZM222,66 214,78 229,96 243,127 259,177 264,178 267,164 263,157 267,153 267,145 262,138 265,133 265,127 263,123 258,120 260,115 259,108 251,101 252,93 250,89 241,85 242,80 239,75 230,75 228,67ZM198,58 195,59 190,53 185,54 182,58 179,54 172,53 168,56 166,61 164,59 158,59 153,64 154,70 149,73 150,93 153,95 160,94 163,98 171,98 176,92 183,92 188,84 191,84 196,80Z"/><path fill="#F9DAA1" fill-rule="evenodd" d="M125,176 124,190 128,200 140,210 154,212 157,214 177,213 199,206 206,199 210,187 209,176 204,167 192,159 183,157 160,157 143,160 136,163ZM141,179 144,181 146,187 144,190 142,190 139,186 139,181ZM174,176 176,178 176,182 171,188 169,186 169,180 172,176ZM169,142 167,142 163,151 167,149Z"/><path fill="#BF5925" fill-rule="evenodd" d="M9,381 9,395 15,401 20,421 24,424 35,426 57,426 71,423 78,399 83,396 84,382 82,380 66,377 48,377 48,381 63,381 70,383 61,385 35,385 20,383 42,380 42,377 34,378 33,376 21,377 19,379Z"/><path fill="#FAFBFA" fill-rule="evenodd" d="M165,129 141,130 138,135 139,145 141,142 147,141 152,147 152,151 150,153 162,151 168,142 168,136ZM174,129 172,140 181,138 185,143 184,151 194,150 201,145 204,134 199,125 177,126Z"/><path fill="#14D61A" fill-rule="evenodd" d="M289,278 290,295 284,321 289,328 295,331 303,332 304,335 292,336 284,332 279,333 272,390 279,333 284,332 292,336 303,336 315,327 314,326 307,331 299,332 292,330 285,323 284,318 290,295Z"/></svg>