<svg xmlns="http://www.w3.org/2000/svg" viewBox="0 0 293 420" width="293" height="420" shape-rendering="geometricPrecision"><path fill="#31302B" fill-rule="evenodd" d="M29,303 27,307 30,314 25,318 21,318 14,326 14,330 9,332 12,338 12,387 9,391 6,391 6,395 27,395 31,392 35,392 35,390 31,389 39,385 43,385 44,389 40,390 36,396 46,396 46,392 51,392 52,394 63,393 62,387 56,388 56,384 49,383 48,385 45,383 45,341 41,340 44,338 47,341 51,341 52,339 56,340 56,380 58,380 61,376 60,342 61,338 66,336 66,331 63,330 48,315 46,315 45,318 39,317 39,303ZM15,337 25,335 37,341 36,384 17,385 14,382ZM43,273 42,279 48,288 45,307 47,307 53,299 54,288 50,278ZM125,175 123,175 120,180 116,179 116,181 123,181ZM222,175 217,174 216,172 211,172 176,183 155,194 146,201 136,205 127,205 127,207 131,209 123,215 116,214 106,204 101,205 100,203 87,201 81,208 81,211 86,212 86,214 80,214 80,217 65,234 37,250 37,252 44,253 49,256 55,264 57,269 56,282 63,282 72,279 81,272 84,272 79,372 81,405 100,408 121,408 113,356 109,308 110,301 117,335 138,408 145,413 179,414 195,412 201,409 231,410 241,408 244,404 265,404 269,402 269,399 261,390 255,377 250,352 253,351 253,349 248,346 247,332 245,329 244,301 238,253 235,240 228,225 228,219 232,213 232,208 229,199 223,190 225,179ZM209,339 224,377 224,382 215,366 208,343ZM132,241 134,248 130,251 126,248 131,247ZM120,227 124,241 121,242 124,273 121,275 118,271 117,233 115,233 113,243 111,270 110,271 107,269 110,242 107,241 113,229 119,229ZM120,227 122,220 129,221 128,225 124,224 124,228ZM87,214 91,213 100,217 97,218ZM184,206 190,204 210,204 214,206ZM140,136 138,136 136,142 130,141 130,143 137,144ZM105,132 98,129 94,131 93,136 95,136 98,131 102,132 103,134 105,134ZM136,91 138,91 139,88 146,90 146,88 138,86ZM167,62 165,62 161,74 161,80 158,81 158,83 163,80 163,74ZM128,54 122,57 121,63 116,65 115,68 123,66 123,60 128,56Z"/><path fill="#489657" fill-rule="evenodd" d="M258,346 251,347 251,350 257,350ZM79,194 79,196 89,202 102,205 102,203 92,201ZM126,170 124,168 118,169 116,176 118,176 121,170 123,170 124,174 126,174ZM89,166 87,170 91,168 93,170 93,176 91,178 87,175 89,180 93,180 95,177 94,167ZM211,11 199,17 182,35 169,60 165,63 162,78 158,82 151,81 148,87 144,89 138,87 136,90 130,92 125,86 119,87 115,81 113,81 103,94 101,102 157,106 163,108 165,111 165,114 162,117 97,113 96,121 121,123 124,126 125,132 119,142 108,145 96,138 95,132 102,131 102,129 96,129 96,131 93,132 88,153 110,150 137,155 151,164 157,177 155,189 147,200 134,204 133,206 105,204 107,209 115,216 119,215 124,217 139,205 176,185 204,175 201,139 196,112 192,100 182,82 189,76 189,72 204,51 212,26ZM129,129 133,124 158,125 161,131 161,136 153,146 149,148 141,148 135,145 129,137 130,134 136,133 138,136 138,141 140,141 139,133 136,131 130,132ZM98,6 96,20 99,41 109,65 113,70 115,70 118,66 123,65 122,61 126,56 130,55 130,49 120,27 114,18 103,6Z"/><path fill="#21221B" fill-rule="evenodd" d="M252,369 257,386 267,400 264,404 271,403 271,400 261,389 254,369ZM246,340 246,345 249,350 249,358 251,358 251,353 253,350 248,344 248,340ZM244,322 244,331 247,333 246,322ZM198,296 203,328 214,368 223,385 229,392 231,392 212,343 202,309 200,296ZM108,289 108,310 112,358 120,408 135,407 146,413 146,411 139,406 118,333 110,289ZM170,284 173,319 179,357 187,386 190,388 179,337 172,284ZM89,236 87,236 82,269 74,276 58,281 58,274 56,274 53,281 47,274 41,274 41,279 47,286 46,299 48,299 49,286 43,277 44,275 51,283 53,290 50,301 46,305 43,305 43,307 46,308 47,313 42,317 39,314 41,307 40,303 28,302 26,307 29,309 29,313 26,316 21,317 5,332 5,334 8,334 11,337 11,350 13,351 13,356 15,356 15,341 17,339 37,341 38,351 40,351 41,348 42,351 44,351 44,343 50,340 50,338 47,337 50,332 63,331 65,334 59,336 58,357 57,338 54,338 56,381 50,384 44,383 44,365 42,365 41,384 40,382 36,385 16,384 15,362 13,362 13,369 11,370 13,373 13,380 11,381 11,387 8,390 5,390 5,396 51,397 60,394 64,395 64,386 76,386 82,389 80,386 82,320ZM53,392 54,389 61,390 57,393ZM7,393 11,392 13,389 29,391 25,394ZM59,362 60,374 58,377 57,363ZM11,333 42,332 44,336 36,339 35,337 27,334 18,334 17,336 13,336ZM42,320 51,320 59,328 46,330ZM42,329 27,330 15,328 23,319 27,319 30,316 37,316ZM29,308 31,304 37,304 39,306 37,309ZM227,225 234,244 236,244 230,226ZM81,217 79,217 63,234 39,249 36,249 36,253 42,253 51,259 56,268 56,272 58,272 56,262 51,255 43,252 42,250 58,241 63,236 71,236 69,232 81,219ZM75,201 75,207 80,215 85,215 105,222 100,224 100,227 103,229 97,238 96,247 99,250 108,248 105,270 108,272 112,272 115,240 117,240 117,273 119,276 125,276 123,250 124,249 128,252 133,252 135,250 135,243 128,228 132,227 150,230 150,228 144,225 137,224 135,222 170,211 194,207 214,209 226,219 226,223 228,223 228,220 232,214 232,212 230,212 228,215 221,207 212,203 188,203 153,211 129,219 125,219 122,215 112,214 110,219 99,214 83,210 85,205 90,203 102,206 110,212 108,207 104,204 99,204 88,199 85,200 83,196 78,196ZM124,232 128,238 128,244 124,238ZM110,229 111,231 108,237 102,244 102,239ZM119,217 119,225 115,227 113,221ZM168,189 153,196 153,198 168,191ZM219,174 219,176 223,179 223,195 228,201 229,205 231,205 229,198 224,192 225,178 223,175ZM212,172 205,173 201,175 201,177 212,174ZM114,79 114,84 116,87 126,88 126,86 117,85 116,79ZM166,64 164,64 161,79 163,79Z"/><path fill="#0C1407" fill-rule="evenodd" d="M270,320 261,330 261,345 268,348 277,348 284,344 282,337 287,332 288,327 279,326 274,328 274,321ZM19,263 16,271 18,281 45,287 45,313 42,316 40,314 42,307 40,301 28,301 24,304 24,307 28,312 27,314 21,316 4,331 4,335 8,335 10,337 10,387 8,389 4,389 4,397 51,398 63,395 65,387 74,387 80,390 79,404 81,406 113,410 134,408 144,414 150,415 190,414 202,410 232,411 238,410 245,405 258,406 270,403 270,398 262,389 257,378 252,360 252,350 250,350 250,361 255,380 260,391 268,400 264,403 243,403 239,407 230,409 200,408 189,412 151,413 146,412 137,406 122,406 115,408 82,404 82,388 75,384 62,385 61,393 49,396 7,395 6,392 12,389 12,335 9,332 23,318 30,315 30,309 28,306 30,303 37,303 39,305 38,316 40,318 44,318 48,315 48,284 42,276 45,275 51,282 52,286 54,286 58,275 57,266 52,257 39,251 57,241 72,228 81,218 81,211 77,207 76,203 77,202 79,206 82,207 89,202 89,200 80,194 76,195 73,200 73,207 79,216 64,232 55,239 33,251ZM119,169 116,180 122,181 125,175 125,170ZM89,167 87,170 88,178 93,179 94,169 93,167ZM130,132 128,135 130,142 138,143 139,134 137,132ZM96,130 93,133 95,139 98,142 104,141 104,131ZM94,105 94,110 96,113 154,118 163,118 166,114 165,108 162,106 102,101ZM188,74 181,81 181,84 191,101 196,116 201,145 203,175 214,173 223,178 223,194 228,200 231,209 230,215 227,218 227,226 232,235 238,259 247,346 252,348 248,339 240,257 237,242 229,224 233,214 233,207 230,198 225,192 226,178 223,174 217,172 215,165 220,157 220,150 215,143 220,137 220,130 214,123 217,118 217,112 215,107 209,103 209,91 206,88 199,87 199,78 195,74ZM167,61 161,54 157,54 152,57 146,50 140,51 135,57 131,54 125,55 122,58 122,64 117,65 114,69 116,75 114,80 115,86 124,87 127,92 135,92 140,88 147,89 153,82 158,83 162,81 162,75Z"/><path fill="#F7DAA3" fill-rule="evenodd" d="M14,340 14,384 38,385 38,341ZM55,339 44,340 44,385 56,383ZM76,162 73,169 74,185 79,195 90,202 116,207 135,206 148,201 156,191 158,184 156,168 151,161 139,154 112,149 92,150 81,156ZM122,169 125,172 123,178 119,181 117,179 117,175ZM90,168 92,168 94,172 91,179 88,175 88,170ZM100,141 103,145 113,146 113,144 106,144 104,142 106,137ZM128,127 128,129 132,126 158,127 160,132 162,132 160,124 131,123ZM95,121 95,123 122,124 124,127 123,137 125,137 126,127 123,122 104,120Z"/><path fill="#FAFBF9" fill-rule="evenodd" d="M131,125 129,133 131,131 136,131 140,135 139,142 134,144 138,147 148,148 158,142 161,135 159,127ZM95,124 94,131 101,129 106,134 106,138 102,143 115,144 123,138 123,124 99,122Z"/></svg>