<svg xmlns="http://www.w3.org/2000/svg" viewBox="0 0 264 450" width="264" height="450" shape-rendering="geometricPrecision"><path fill="#429E62" fill-rule="evenodd" d="M174,330 174,333 177,335 184,335 191,338 212,337 212,335 190,334ZM59,295 52,299 52,301 59,301ZM25,283 25,285 31,289 30,282ZM29,29 30,34 27,35 28,44 42,67 51,77 60,75 60,72 57,70 46,50 47,48 54,57 58,67 66,64 66,58 57,41 48,30 43,29 43,35 40,38 36,33ZM138,26 135,26 130,33 127,31 126,25 121,26 115,41 110,62 107,64 104,86 101,86 94,91 89,90 89,93 84,98 75,97 68,103 62,97 56,98 49,93 39,108 39,113 98,116 105,120 105,125 102,128 33,125 33,133 39,133 40,136 42,136 43,133 62,134 64,136 64,143 60,151 55,156 46,158 37,154 31,146 31,141 29,141 21,167 31,164 63,167 72,169 86,178 93,190 93,205 89,213 81,221 74,223 74,225 100,216 110,210 118,202 119,203 110,217 96,228 79,234 67,233 62,248 58,278 60,278 61,272 66,263 70,259 79,256 87,260 93,267 100,288 99,301 93,316 78,326 68,322 75,334 62,348 47,381 60,384 72,391 74,391 98,365 111,356 117,356 127,350 135,349 151,343 153,339 165,329 167,325 166,320 171,315 171,280 156,228 156,220 150,204 146,149 143,131 136,107 126,91 135,80 135,75 138,70 143,51 144,34 139,32ZM126,314 130,312 141,312 151,316 155,321 153,329 147,335 143,334 139,337 136,336 133,331 129,332 126,329ZM127,294 128,308 126,313 125,307ZM126,279 128,281 127,291 125,282ZM66,142 70,135 86,135 100,137 102,144 99,152 94,157 88,160 80,160 75,158 68,151ZM128,41 129,46 122,73 117,81 117,75Z"/><path fill="#131712" fill-rule="evenodd" d="M34,393 38,396 51,398 71,398 74,395 74,390 53,381 43,382 36,386ZM182,373 179,370 174,369 150,384 148,389 148,395 151,398 155,398 165,393 181,379ZM237,317 231,323 229,332 239,339 251,338 250,333 257,330 259,325 253,322 246,322 247,315ZM126,314 124,325 127,332 132,331 134,336 141,337 144,335 150,335 154,330 155,318 153,316 140,311 130,311ZM181,291 178,291 171,297 171,310 169,317 179,319 180,313 188,311 190,300ZM11,288 12,293 8,297 8,302 12,305 13,310 17,310 20,314 24,314 36,309 36,297 26,284 18,284ZM59,185 54,185 52,187 51,198 56,198 58,196ZM19,183 19,196 24,196 26,191 25,184ZM71,134 66,138 66,145 68,148 76,148 79,145 79,137 75,134ZM35,132 30,136 29,142 34,146 40,146 43,142 43,137 40,133ZM30,117 32,125 39,126 44,125 103,129 106,126 106,119 102,116 37,113ZM134,78 124,89 124,91 131,100 139,119 146,155 149,202 155,222 158,223 162,220 161,212 166,210 168,207 168,199 165,195 172,189 172,181 167,176 167,174 173,169 173,163 167,156 172,149 172,143 170,139 164,135 167,130 167,121 158,115 160,112 159,103 154,99 149,99 147,97 148,89 146,85 139,83 137,78ZM108,63 102,59 95,59 91,63 85,57 78,57 74,61 73,65 69,66 67,64 61,64 59,66 60,74 51,76 51,84 54,87 51,91 51,96 56,99 60,98 65,103 71,103 76,99 87,98 91,91 98,91 105,86Z"/><path fill="#FBDBA5" fill-rule="evenodd" d="M73,256 65,262 59,274 58,302 60,303 64,319 68,323 73,325 83,325 90,321 97,311 100,300 100,285 97,272 92,263 83,256ZM5,181 4,200 7,208 18,219 37,225 78,224 87,218 94,205 94,189 91,182 84,174 72,168 54,165 25,165 12,172ZM56,185 59,190 54,198 51,193ZM22,183 25,186 25,193 22,196 18,190Z"/><path fill="#2C874E" fill-rule="evenodd" d="M122,448 132,449 128,443 125,443ZM47,380 47,382 61,385 71,391 76,390 76,388 73,389 62,383ZM115,355 117,360 124,368 148,382 150,385 153,385 175,371 175,367 157,348 153,340 133,348 125,349ZM124,324 125,331 127,333 131,333 136,338 151,335 155,326 153,326 148,334 138,336 135,334 134,330 129,331 126,328 126,324ZM163,328 164,331 178,335 179,332 180,336 186,336 186,332 180,331 168,323 166,323ZM166,265 170,282 171,298 173,298 180,292 168,265ZM115,253 125,285 124,321 126,321 127,316 130,313 135,312 135,310 129,310 129,279 120,257 117,253ZM154,247 163,277 162,300 159,310 155,316 143,311 139,311 139,313 143,313 151,317 154,320 154,324 156,324 156,320 159,317 164,305 166,279 161,257 156,247ZM64,247 62,247 58,255 48,267 24,283 35,299 35,308 58,301 60,269 64,266 64,264 61,263ZM149,201 152,216 155,223 157,223 152,210 151,201ZM126,189 124,189 121,196 102,213 84,221 67,225 67,234 85,234 94,231 111,219 119,208 125,196ZM67,135 72,136 71,133 74,130 81,130 82,126 71,126 70,132 67,133ZM33,124 33,126 46,126 46,124ZM92,115 92,117 100,117 105,121 105,124 102,127 102,129 104,129 107,125 106,118 100,115ZM51,112 51,114 66,115 66,113ZM54,97 54,99 63,100 66,104 73,103 76,100 76,98 74,98 73,100 67,102 63,100 62,96ZM133,79 132,82 125,88 124,92 127,94 135,109 142,137 144,137 138,111 132,98 127,93 127,90 135,81 135,79ZM108,67 106,67 104,84 96,90 90,90 88,95 90,95 91,92 96,92 103,87 106,87ZM21,13 21,23 26,39 28,39 32,33 38,38 49,61 58,73 52,75 52,77 61,76 60,68 63,65 65,65 70,73 72,73 71,65 69,65 67,61 59,64 55,55 43,39 44,32 47,31 47,29 30,15ZM138,5 134,5 131,8 122,24 122,27 125,28 128,37 125,42 116,73 115,85 117,85 120,81 125,69 129,54 131,35 136,29 138,35 144,35 143,17Z"/><path fill="#FAFCFA" fill-rule="evenodd" d="M67,147 70,154 75,158 87,160 94,157 99,152 101,138 93,136 78,136 80,139 79,145 75,149 70,149ZM40,133 44,140 40,146 32,147 33,150 38,155 44,157 50,157 57,154 62,148 64,142 63,135Z"/><path fill="#01DA1D" fill-rule="evenodd" d="M166,320 169,316 166,322 171,327 186,333 185,336 171,333 191,337 192,334 200,334 200,338 193,338 205,338 228,332 212,335 190,334 171,327Z"/></svg>